<svg xmlns="http://www.w3.org/2000/svg" viewBox="0 0 486.06 561.25"><defs><style>.cls-1{fill:#101925;}.cls-2{fill:#1e5785;}</style></defs><g id="Layer_2" data-name="Layer 2"><g id="Layer_1-2" data-name="Layer 1"><path class="cls-1" d="M243,561.25,0,420.94V140.31L243,0l243,140.31V420.94ZM22.48,408,243,535.29,463.58,408V153.29L243,26,22.48,153.29Z"/><path class="cls-1" d="M367.08,277.62H119L98.63,298v45.75L119,364.07h248.1l20.35-20.35V298Z"/><path class="cls-1" d="M234.15,234.38l-6.2,6.2v26.51h30.16V240.58l-6.2-6.2Z"/><path class="cls-1" d="M283.29,234.6a3.76,3.76,0,0,0-1.37-5.13l-25.34-14.63a3.85,3.85,0,0,0-1.87-.5H231.35a3.85,3.85,0,0,0-1.87.5l-25.34,14.63a3.75,3.75,0,1,0,3.76,6.5l23.59-13.62a3.75,3.75,0,0,1,1.88-.5h19.32a3.75,3.75,0,0,1,1.88.5L278.16,236A3.75,3.75,0,0,0,283.29,234.6Z"/><path class="cls-1" d="M301.44,220.49a3.76,3.76,0,0,0-1.38-5.13L263.42,194.2a3.75,3.75,0,0,0-1.88-.5h-37a3.75,3.75,0,0,0-1.88.5L186,215.36a3.75,3.75,0,1,0,3.75,6.5l34.9-20.15a3.75,3.75,0,0,1,1.88-.5h33a3.75,3.75,0,0,1,1.88.5l34.9,20.15A3.76,3.76,0,0,0,301.44,220.49Z"/><path class="cls-1" d="M168.54,209l48.12-27.79a3.74,3.74,0,0,1,1.87-.5h49a3.74,3.74,0,0,1,1.87.5L317.52,209a3.76,3.76,0,0,0,3.76-6.51l-49.87-28.78a3.73,3.73,0,0,0-1.87-.51h-53a3.73,3.73,0,0,0-1.87.51l-49.87,28.78a3.76,3.76,0,0,0,3.76,6.51Z"/><polygon class="cls-2" points="178.49 313.35 165.22 313.35 158.58 324.85 165.22 336.35 178.49 336.35 185.13 324.85 178.49 313.35"/><polygon class="cls-2" points="225.94 313.35 212.67 313.35 206.03 324.85 212.67 336.35 225.94 336.35 232.58 324.85 225.94 313.35"/><polygon class="cls-2" points="273.39 313.35 260.12 313.35 253.48 324.85 260.12 336.35 273.39 336.35 280.03 324.85 273.39 313.35"/><polygon class="cls-2" points="320.84 313.35 307.57 313.35 300.93 324.85 307.57 336.35 320.84 336.35 327.48 324.85 320.84 313.35"/></g></g></svg>