<svg xmlns="http://www.w3.org/2000/svg" viewBox="0 0 486.06 561.25"><defs><style>.cls-1{fill:#101925;}.cls-2{fill:#1e5785;}.cls-3{fill:#fff;}</style></defs><g id="Layer_2" data-name="Layer 2"><g id="Layer_1-2" data-name="Layer 1"><path class="cls-1" d="M243,561.25,0,420.94V140.31L243,0l243,140.31V420.94ZM22.48,408,243,535.29,463.58,408V153.29L243,26,22.48,153.29Z"/><path class="cls-1" d="M403.24,290.21l-.68,1.17-33.18,56.21-.09.16a2.23,2.23,0,0,1-1.91,1.08l-78-9.1v-28L243,284.93l-46.39,26.78v28l-78,9.1a2.22,2.22,0,0,1-1.91-1.08l-.09-.16L83.5,291.38l-.68-1.17a2.21,2.21,0,0,1,0-2.21l.86-1.52,30.95-54.82,1.35-2.39a2.2,2.2,0,0,1,2-1.12l3.15,0,27.61,3,2.65.16,6.71.4,4.43.14,29.68,40.78-20.47-44.9c11.47-13.7,29.3-31.25,29.82-31.25H281.7c.54,0,18.7,17.87,30.18,31.61l-20.3,44.53,29.68-40.78v0l3.84-.12,6.72-.4,2.64-.16,30.55-3,3.15,0a2.21,2.21,0,0,1,1.95,1.12l1.35,2.39,31,54.82.86,1.52A2.21,2.21,0,0,1,403.24,290.21Z"/><polygon class="cls-2" points="285.01 314.25 285.01 362.73 243.03 386.97 201.04 362.73 201.04 314.25 243.03 290.01 285.01 314.25"/><path class="cls-3" d="M253.2,318.53h-1l-11.4,16.89.51,1h7.42v21l.82.82h6.34l.82-.82v-21h7.42l.51-1Z"/><path class="cls-3" d="M237.37,340.59v-21l-.82-.82h-6.34l-.82.82v21H222l-.51,1,11.4,16.89h1l11.41-16.89-.51-1Z"/></g></g></svg>