<svg xmlns="http://www.w3.org/2000/svg" viewBox="0 0 486.06 561.25"><defs><style>.cls-1{fill:#101925;}.cls-2{fill:none;}.cls-3{fill:#1e5785;}</style></defs><g id="Layer_2" data-name="Layer 2"><g id="Layer_1-2" data-name="Layer 1"><path class="cls-1" d="M243,561.25,0,420.94V140.31L243,0l243,140.31V420.94ZM22.48,408,243,535.29,463.58,408V153.29L243,26,22.48,153.29Z"/><path class="cls-1" d="M392.56,235.07l-31.3-8.38L338.35,249.6l7.2,26.86-43.7,43.67v57.8h7.87V323.39l41.34-41.34,27,7.22,22.9-22.9Zm-16.89,45.44-22.54-6-6-22.54,16.5-16.5,22.5,6L392.17,264Z"/><path class="cls-1" d="M386.12,241.48l-22.5-6-16.5,16.5,6,22.54,22.54,6,16.5-16.5Zm-13.31,28.35L361,266.65,357.8,254.8l8.68-8.66,11.83,3.18,3.18,11.83Z"/><path class="cls-2" d="M386.12,241.48l-22.5-6-16.5,16.5,6,22.54,22.54,6,16.5-16.5Zm-13.31,28.35L361,266.65,357.8,254.8l8.68-8.66,11.83,3.18,3.18,11.83Z"/><polygon class="cls-3" points="381.49 261.15 372.81 269.83 360.98 266.65 357.8 254.79 366.48 246.14 378.31 249.31 381.49 261.15"/><path class="cls-1" d="M339.84,186l-31.3-8.37-22.9,22.9,7.13,26.67L280.13,239.9v103H288V243.13L298.14,233l27.18,7.28,22.93-22.9ZM323,231.5l-22.56-6-6-22.57,16.5-16.46,22.54,6,6,22.51Z"/><path class="cls-1" d="M333.44,192.47l-22.54-6-16.5,16.46,6,22.57,22.56,6L339.45,215Zm-13.32,28.32-11.86-3.17-3.18-11.83,8.69-8.69,11.83,3.18,3.17,11.83Z"/><polygon class="cls-3" points="328.77 212.11 320.12 220.79 308.26 217.62 305.08 205.79 313.77 197.1 325.6 200.28 328.77 212.11"/><path class="cls-1" d="M156,276.46l7.19-26.86-22.9-22.91L109,235.07l-8.38,31.3,22.93,22.9,27-7.22,41.31,41.34v54.54h7.87v-57.8Zm-7.62-2-22.53,6L109.36,264l6-22.53,22.54-6,16.49,16.5Z"/><path class="cls-1" d="M137.94,235.43l-22.54,6-6,22.53,16.5,16.5,22.53-6,6-22.54Zm2.61,31.22-11.83,3.18-8.65-8.68,3.14-11.83,11.86-3.18,8.66,8.66Z"/><polygon class="cls-3" points="143.73 254.79 140.55 266.65 128.72 269.83 120.07 261.15 123.22 249.31 135.07 246.14 143.73 254.79"/><path class="cls-1" d="M208.75,227.23l7.14-26.67L193,177.66,161.68,186l-8.37,31.31,22.93,22.9L203.39,233l10.17,10.17v99.79h7.87v-103Zm-7.64-1.77-22.54,6L162.08,215l6-22.51,22.54-6,16.49,16.46Z"/><path class="cls-1" d="M190.66,186.43l-22.54,6-6,22.51,16.49,16.52,22.54-6,6-22.57Zm2.61,31.19-11.83,3.17-8.68-8.68,3.17-11.83,11.86-3.18,8.66,8.69Z"/><polygon class="cls-3" points="196.44 205.79 193.27 217.62 181.44 220.79 172.76 212.11 175.93 200.28 187.79 197.1 196.44 205.79"/><polygon class="cls-3" points="261.39 171.06 261.39 183.31 250.76 189.43 240.14 183.31 240.14 171.06 250.76 164.93 261.39 171.06"/><path class="cls-1" d="M250.76,144.78l-28,16.19V193.4l24.11,13.91v168.6h7.87V207.31l24.14-13.91V161ZM271,188.84,250.76,200.5l-20.2-11.66V165.52l20.2-11.66L271,165.52Z"/><path class="cls-1" d="M250.76,153.86l-20.2,11.66v23.32l20.2,11.66L271,188.84V165.52Zm10.63,29.45-10.63,6.12-10.62-6.12V171.06l10.62-6.13,10.63,6.13Z"/><path class="cls-1" d="M315.12,346.42v9.38C328,361.67,335.36,369,335.36,376c0,15.11-34.74,31.94-84.59,31.94S166.18,391.07,166.18,376c0-7,7.39-14.29,20.24-20.16v-9.38C168.58,353.75,157.6,364.2,157.6,376c0,22.73,40.92,40.51,93.17,40.51s93.16-17.78,93.16-40.51C343.93,364.2,333,353.75,315.12,346.42Z"/></g></g></svg>