<svg xmlns="http://www.w3.org/2000/svg" viewBox="0 0 486.06 561.25"><defs><style>.cls-1{fill:#101925;}.cls-2{fill:#1e5785;}</style></defs><g id="Layer_2" data-name="Layer 2"><g id="Layer_1-2" data-name="Layer 1"><path class="cls-1" d="M243,561.25,0,420.94V140.31L243,0l243,140.31V420.94ZM22.48,408,243,535.29,463.58,408V153.29L243,26,22.48,153.29Z"/><path class="cls-2" d="M269.3,254.35h0a31.83,31.83,0,0,1,0,45h0a1.83,1.83,0,0,1-2.58,0l-42.43-42.43a1.83,1.83,0,0,1,0-2.58h0A31.83,31.83,0,0,1,269.3,254.35Z"/><path class="cls-2" d="M300.84,287.69a11.05,11.05,0,0,1-3.2-8.93,48.59,48.59,0,0,0-53.11-53.12,11.09,11.09,0,1,1-2.14-22.07,70.77,70.77,0,0,1,77.32,77.36,11.09,11.09,0,0,1-18.87,6.76Z"/><path class="cls-2" d="M345.75,287.87a11.07,11.07,0,0,1-3.18-9.11,88.12,88.12,0,0,0-97.67-97.67,11.09,11.09,0,0,1-2.54-22A110.31,110.31,0,0,1,364.6,281.29a11.09,11.09,0,0,1-18.85,6.58Z"/><path class="cls-1" d="M314,368.85,154.81,209.67a5.23,5.23,0,0,0-7.39,0h0a91.17,91.17,0,0,0,0,128.93l7.64,7.63-14.43,14.43a13.13,13.13,0,0,0,0,18.56l3.81,3.81A13.13,13.13,0,0,0,163,383l14.42-14.43,7.64,7.64a91.17,91.17,0,0,0,128.93,0A5.23,5.23,0,0,0,314,368.85Z"/></g></g></svg>