<svg xmlns="http://www.w3.org/2000/svg" viewBox="0 0 486.06 561.25"><defs><style>.cls-1{fill:#101925;}.cls-2{fill:#1e5785;}</style></defs><g id="Layer_2" data-name="Layer 2"><g id="Layer_1-2" data-name="Layer 1"><path class="cls-1" d="M243,561.25,0,420.94V140.31L243,0l243,140.31V420.94ZM22.48,408,243,535.29,463.58,408V153.29L243,26,22.48,153.29Z"/><path class="cls-1" d="M345.57,175.17H140.46c-7.39,7.42-11.54,11.58-19,19V317.3c7.45,7.42,11.6,11.58,19,19H345.57c7.45-7.42,11.61-11.58,19-19V194.16C357.18,186.75,353,182.59,345.57,175.17ZM214,299.46h-27.4V237.78h18l9.41,9.41Zm42.72,0h-27.4V223.84h18l9.42,9.41Zm42.71,0h-27.4v-92h18l9.42,9.45Z"/><polygon class="cls-2" points="214.03 247.19 214.03 299.46 186.63 299.46 186.63 237.78 204.62 237.78 214.03 247.19"/><path class="cls-2" d="M256.75,233.25v66.21h-27.4V223.84h18Z"/><polygon class="cls-2" points="299.46 216.93 299.46 299.46 272.06 299.46 272.06 207.48 290.05 207.48 299.46 216.93"/><path class="cls-1" d="M364.59,336.3v17.83c-3.4,3.39-5.29,5.3-8.69,8.68H130.17c-3.4-3.38-5.3-5.29-8.69-8.68V336.3h8c3.42,3.44,6.65,6.67,11,11H345.59c4.36-4.36,7.59-7.59,11-11Z"/><polygon class="cls-1" points="295.8 416.71 190.28 416.71 227.03 373.05 259.05 373.05 295.8 416.71"/></g></g></svg>