<svg xmlns="http://www.w3.org/2000/svg" viewBox="0 0 486.06 561.25"><defs><style>.cls-1{fill:#101925;}.cls-2{fill:#1e5785;}</style></defs><g id="Layer_2" data-name="Layer 2"><g id="Layer_1-2" data-name="Layer 1"><path class="cls-1" d="M243,561.25,0,420.94V140.31L243,0l243,140.31V420.94ZM22.48,408,243,535.29,463.58,408V153.29L243,26,22.48,153.29Z"/><polygon class="cls-2" points="130.66 215.57 137.54 229.96 153.44 231.19 162.46 218.03 155.57 203.65 139.67 202.42 130.66 215.57"/><polygon class="cls-2" points="130.66 345.68 137.54 331.29 153.44 330.06 162.46 343.22 155.57 357.6 139.67 358.83 130.66 345.68"/><polygon class="cls-2" points="355.4 345.68 348.52 331.29 332.62 330.06 323.6 343.22 330.49 357.6 346.39 358.83 355.4 345.68"/><polygon class="cls-2" points="355.4 215.57 348.52 229.96 332.62 231.19 323.6 218.03 330.49 203.65 346.39 202.42 355.4 215.57"/><polygon class="cls-2" points="235.06 151.16 227.08 164.97 235.06 178.78 251 178.78 258.98 164.97 251 151.16 235.06 151.16"/><path class="cls-1" d="M205,165l19,32.91H239.1l1,51.3-19.82,11.45-44-28.93,8.2-12L168,185.45l-37.89-2.93-21.48,31.35,16.4,34.28,37.9,2.93,8.51-12.43,42.85,28.16v27.63L171.48,322.6,163,310.17l-37.9,2.93-16.4,34.28,21.48,31.35L168,375.8l16.41-34.28-8.2-12,44-28.92,19.15,11.05,1,51.69h-14.5l-19,32.91,19,32.92h38l19-32.92-19-32.91H248.85l-1-52.38,18-10.36,44,28.92-8.2,12L318,375.8l37.89,2.93,21.48-31.35L361,313.1l-37.89-2.93-8.52,12.43-42.85-28.16V266.81l42.85-28.16,8.52,12.43L361,248.15l16.4-34.28-21.48-31.35L318,185.45l-16.41,34.28,8.2,12-44,28.93-17.23-9.95-1-52.8H262L281,165l-19-32.92H224Zm-74.44,75.15-12.21-25.5,16-23.32,28.19,2.18,12.2,25.5-16,23.32Zm44.16,102.15-12.2,25.5L134.35,370l-16-23.32,12.21-25.5L158.76,319Zm84.32,29.53,14.13,24.48-14.13,24.49H230.79l-14.14-24.49,14.14-24.48Zm96.42-50.67,12.21,25.5-16,23.32-28.19-2.18-12.2-25.5,16-23.32ZM311.32,219l12.2-25.5,28.19-2.18,16,23.32-12.21,25.5L327.3,242.3Zm-54.16-78.5L271.3,165l-14.13,24.48H228.9L214.76,165l14.14-24.49Z"/><polygon class="cls-2" points="252.9 410.1 260.87 396.28 252.9 382.47 236.95 382.47 228.97 396.28 236.95 410.1 252.9 410.1"/></g></g></svg>