<svg xmlns="http://www.w3.org/2000/svg" viewBox="0 0 486.06 561.25"><defs><style>.cls-1{fill:#101925;}.cls-2{fill:none;}.cls-3{fill:#1e5785;}</style></defs><g id="Layer_2" data-name="Layer 2"><g id="Layer_1-2" data-name="Layer 1"><path class="cls-1" d="M243,561.25,0,420.94V140.31L243,0l243,140.31V420.94ZM22.48,408,243,535.29,463.58,408V153.29L243,26,22.48,153.29Z"/><path class="cls-1" d="M144,373.86l21.87,5.85,16-16-5-18.77,30.53-30.5V274.05h-5.5v38.11L173,341,154.12,336l-16,16Zm11.8-31.74,15.74,4.22,4.2,15.74-11.52,11.53-15.73-4.23-4.22-15.74Z"/><path class="cls-1" d="M148.46,369.38l15.73,4.23,11.52-11.53-4.2-15.74-15.74-4.22-11.53,11.52Zm9.31-19.8,8.26,2.21,2.22,8.29-6.06,6.05-8.27-2.22-2.22-8.27Z"/><path class="cls-2" d="M148.46,369.38l15.73,4.23,11.52-11.53-4.2-15.74-15.74-4.22-11.53,11.52Zm9.31-19.8,8.26,2.21,2.22,8.29-6.06,6.05-8.27-2.22-2.22-8.27Z"/><polygon class="cls-3" points="151.7 355.64 157.77 349.58 166.03 351.8 168.25 360.08 162.19 366.13 153.92 363.91 151.7 355.64"/><path class="cls-1" d="M180.8,408.12,202.67,414l16-16-5-18.63,8.83-8.86v-72H217v69.72l-7.11,7.1-19-5.08-16,16Zm11.78-31.77,15.76,4.22,4.2,15.77L201,407.84l-15.75-4.22-4.2-15.72Z"/><path class="cls-1" d="M185.27,403.62,201,407.84l11.52-11.5-4.2-15.77-15.76-4.22L181.07,387.9Zm9.31-19.79,8.28,2.22,2.22,8.27L199,400.38l-8.27-2.22-2.22-8.26Z"/><polygon class="cls-3" points="188.53 389.9 194.58 383.83 202.86 386.05 205.08 394.32 199.01 400.38 190.75 398.16 188.53 389.9"/><path class="cls-1" d="M309.23,344.94l-5,18.77,16,16,21.89-5.85L347.94,352l-16-16L313.07,341l-28.85-28.88V274.05h-5.5v40.39Zm5.32,1.4,15.74-4.22,11.53,11.52-4.23,15.74-15.74,4.23-11.52-11.53Z"/><path class="cls-1" d="M321.85,373.61l15.74-4.23,4.23-15.74-11.53-11.52-15.74,4.22-4.22,15.74ZM320,351.79l8.27-2.21,6,6.06-2.2,8.27-8.29,2.22-6-6.05Z"/><polygon class="cls-3" points="317.81 360.08 320.02 351.8 328.29 349.58 334.34 355.64 332.14 363.91 323.85 366.13 317.81 360.08"/><path class="cls-1" d="M272.38,379.34l-5,18.63,16,16,21.87-5.85,5.85-21.87-16-16-19,5.08-7.11-7.1V298.51h-5.5v72Zm5.34,1.23,15.74-4.22L305,387.9l-4.22,15.72L285,407.84l-11.52-11.5Z"/><path class="cls-1" d="M285,407.84l15.75-4.22L305,387.9l-11.53-11.55-15.74,4.22-4.22,15.77Zm-1.82-21.79,8.26-2.22,6.07,6.07-2.22,8.26L287,400.38l-6-6.06Z"/><polygon class="cls-3" points="280.98 394.32 283.2 386.05 291.46 383.83 297.53 389.9 295.31 398.16 287.02 400.38 280.98 394.32"/><polygon class="cls-3" points="235.61 418.58 235.61 410.02 243.03 405.74 250.45 410.02 250.45 418.58 243.03 422.86 235.61 418.58"/><path class="cls-1" d="M243,436.94l19.59-11.31V403l-16.84-9.71V275.47h-5.5V393.26L223.42,403v22.66Zm-14.12-30.79L243,398l14.11,8.14v16.3L243,430.6l-14.12-8.15Z"/><path class="cls-1" d="M243,430.6l14.11-8.15v-16.3L243,398l-14.12,8.14v16.3ZM235.61,410l7.42-4.28,7.42,4.28v8.56L243,422.86l-7.42-4.28Z"/><path class="cls-1" d="M198.07,296.07v-6.55c-9-4.11-14.14-9.23-14.14-14.09,0-10.56,24.27-22.31,59.1-22.31s59.09,11.75,59.09,22.31c0,4.86-5.16,10-14.14,14.09v6.55c12.47-5.12,20.13-12.42,20.13-20.64,0-15.88-28.59-28.3-65.08-28.3s-65.09,12.42-65.09,28.3C177.94,283.65,185.61,291,198.07,296.07Z"/><path class="cls-1" d="M343.54,314.82h-201l-11-11V171.42l11-11h201l11,11V303.85Z"/><rect class="cls-3" x="188.86" y="202.11" width="108.35" height="10.13"/><rect class="cls-3" x="188.86" y="232.57" width="108.35" height="10.13"/><rect class="cls-3" x="188.86" y="263.03" width="108.35" height="10.13"/></g></g></svg>