<svg xmlns="http://www.w3.org/2000/svg" viewBox="0 0 486.06 561.25"><defs><style>.cls-1{fill:#101925;}.cls-2{fill:#1e5785;}.cls-3{fill:#fff;}</style></defs><g id="Layer_2" data-name="Layer 2"><g id="Layer_1-2" data-name="Layer 1"><path class="cls-1" d="M243,561.25,0,420.94V140.31L243,0l243,140.31V420.94ZM22.48,408,243,535.29,463.58,408V153.29L243,26,22.48,153.29Z"/><path class="cls-1" d="M406.16,284l-.68,1.17L372.3,341.34l-.09.15a2.22,2.22,0,0,1-1.91,1.09l-78-9.1v-28L246,278.67l-46.4,26.79v28l-78,9.1a2.2,2.2,0,0,1-1.9-1.09l-.1-.15L86.42,285.12,85.73,284a2.23,2.23,0,0,1,0-2.21l.86-1.51,31-54.82,1.35-2.39a2.23,2.23,0,0,1,2-1.13l3.15,0,27.62,3,2.64.15,6.72.4,4.42.14,29.69,40.78-20.47-44.9c11.47-13.7,29.29-31.25,29.82-31.25h80.22c.53,0,18.7,17.88,30.17,31.62L294.5,266.43l29.68-40.78v0l3.84-.12,6.72-.4,2.64-.15,30.55-3,3.15,0A2.22,2.22,0,0,1,373,223l1.35,2.39,30.95,54.82.86,1.51A2.21,2.21,0,0,1,406.16,284Z"/><polygon class="cls-2" points="287.93 308 287.93 356.48 245.95 380.72 203.96 356.48 203.96 308 245.95 283.76 287.93 308"/><path class="cls-3" d="M227.42,331.69l17.49,10.15-5.73.12,28-21.18,2,2.28c-1.49,1.58-26.83,28.24-27.23,28.66-1.57-1.8-14.16-16.08-16.06-18.25l1.46-1.78Z"/></g></g></svg>