<svg xmlns="http://www.w3.org/2000/svg" viewBox="0 0 486.06 561.25"><defs><style>.cls-1{fill:#101925;}.cls-2{fill:#1e5785;}</style></defs><g id="Layer_2" data-name="Layer 2"><g id="Layer_1-2" data-name="Layer 1"><path class="cls-1" d="M243,561.25,0,420.94V140.31L243,0l243,140.31V420.94ZM22.48,408,243,535.29,463.58,408V153.29L243,26,22.48,153.29Z"/><polygon class="cls-2" points="385.55 222.43 174.79 168.51 136.92 190.95 130.31 216.8 338.08 269.95 385.55 222.43"/><polygon class="cls-1" points="138.46 227.71 132.86 249.58 140.75 262.9 333.95 312.32 348.73 303.57 358.27 265.58 341.93 279.76 138.46 227.71"/><polygon class="cls-1" points="384.81 235.66 373.08 247.01 360.12 297.66 364.91 313.09 375.82 302.54 388.85 251.62 384.81 235.66"/><polygon class="cls-1" points="216.24 307.01 229.54 313.71 229.52 358.28 180.73 358.26 180.72 358.26 177.47 343.45 152.95 328.07 152.91 408.69 177.24 391.05 180.53 376.04 229.5 376.06 235.59 376.06 247.31 364.35 247.31 358.3 247.32 316.1 251.7 316.25 267.85 300.89 207.71 285.5 216.24 307.01"/></g></g></svg>