<svg xmlns="http://www.w3.org/2000/svg" viewBox="0 0 486.06 561.25"><defs><style>.cls-1{fill:#101925;}.cls-2{fill:#1e5785;}</style></defs><g id="Layer_2" data-name="Layer 2"><g id="Layer_1-2" data-name="Layer 1"><path class="cls-1" d="M243,561.25,0,420.94V140.31L243,0l243,140.31V420.94ZM22.48,408,243,535.29,463.58,408V153.29L243,26,22.48,153.29Z"/><path class="cls-2" d="M279.85,313l-47,17.79-20.23,35-15.82,27.43L174.2,432.7a9.2,9.2,0,0,1-12.59,3.37l-12.71-7.33a9.18,9.18,0,0,1-3.37-12.56l22.6-39.49L184,349.29l20.2-35-8.09-49.6,49.12-28.07-20.07,34.73,11.21,20.31,23.22-.44,20.06-34.74Z"/><path class="cls-1" d="M360.73,251.16V215.22L332.68,199l10.51-18.21-55.78-32.2L276.9,166.8l-34.22-19.75L208.45,166.8l-10.51-18.18-55.81,32.2L152.64,199l-28,16.19v35.94H104.11v64.43H124.6v36l28,16.19,8.21,4.72,15.82-27.4-20.43-11.8V233.48l86.44-49.9,86.41,49.9v99.79l-86.41,49.91L219.92,370,204.1,397.45l4.35,2.5,34.23,19.76L276.9,400l10.51,18.21,55.78-32.23-10.51-18.18,28.05-16.19v-36h21.21V251.16Z"/></g></g></svg>