<svg xmlns="http://www.w3.org/2000/svg" viewBox="0 0 486.06 561.25"><defs><style>.cls-1{fill:#101925;}.cls-2{fill:#1e5785;}</style></defs><g id="Layer_2" data-name="Layer 2"><g id="Layer_1-2" data-name="Layer 1"><path class="cls-1" d="M243,561.25,0,420.94V140.31L243,0l243,140.31V420.94ZM22.48,408,243,535.29,463.58,408V153.29L243,26,22.48,153.29Z"/><path class="cls-2" d="M283.43,287.31l-39-57.76H240.9l-39,57.76,1.76,3.32H229v45.91l2.81,2.81h21.66l2.81-2.81V290.63h25.37Z"/><path class="cls-1" d="M382,252.24H360.73v-36l-28.05-16.2,10.51-18.2-55.8-32.21-10.51,18.2-34.22-19.76-34.22,19.76-10.51-18.2-55.79,32.21,10.5,18.2-28,16.2v36H104.11v64.43h20.48v35.95l28,16.19L142.14,387l55.79,32.21L208.44,401l34.22,19.76L276.89,401l10.5,18.2L343.19,387l-10.51-18.2,28.05-16.19V316.67H382ZM156.24,334.35V234.56l86.42-49.9,86.43,49.9v99.79l-86.43,49.9Z"/></g></g></svg>