<svg xmlns="http://www.w3.org/2000/svg" viewBox="0 0 486.06 561.25"><defs><style>.cls-1{fill:#101925;}.cls-2{fill:#1e5785;}</style></defs><g id="Layer_2" data-name="Layer 2"><g id="Layer_1-2" data-name="Layer 1"><path class="cls-1" d="M243,561.25,0,420.94V140.31L243,0l243,140.31V420.94ZM22.48,408,243,535.29,463.58,408V153.29L243,26,22.48,153.29Z"/><polygon class="cls-2" points="155.64 326.47 138.29 356.52 155.64 386.58 190.35 386.58 207.7 356.52 190.35 326.47 155.64 326.47"/><path class="cls-1" d="M173,268.4v20.69a67.5,67.5,0,0,1,67.42,67.43h20.7A88.22,88.22,0,0,0,173,268.4Z"/><path class="cls-1" d="M173,214.1v20.69A121.87,121.87,0,0,1,294.73,356.52h20.69C315.42,278,251.53,214.1,173,214.1Z"/><path class="cls-1" d="M312.81,216.71A196.43,196.43,0,0,0,173,158.79v20.7c97.61,0,177,79.42,177,177h20.69A196.4,196.4,0,0,0,312.81,216.71Z"/></g></g></svg>